<svg xmlns="http://www.w3.org/2000/svg" viewBox="0 0 27 27" width="27" height="27">
	<defs>
		<clipPath clipPathUnits="userSpaceOnUse" id="cp1">
			<path d="M0,27h27v-27h-27z" />
		</clipPath>
	</defs>
	<style>
		tspan { white-space:pre }
		.shp0 { fill: #7F7F7F }
	</style>
	<g id="Mask Group 17" clip-path="url(#cp1)">
		<g id="question-mark">
			<path id="Path 56" class="shp0" d="M27,13.32c0.1,7.45 -5.86,13.58 -13.32,13.68c-7.45,0.1 -13.58,-5.86 -13.68,-13.32c-0.1,-7.46 5.86,-13.58 13.32,-13.68c7.45,-0.1 13.58,5.86 13.68,13.32zM15.27,19.82c0.03,-1.16 -0.77,-2 -1.95,-2.04l-0.07,0c-1.11,0 -1.94,0.81 -1.97,1.92c-0.03,1.13 0.78,1.98 1.92,2.01l0.07,0c1.14,0 1.95,-0.78 1.99,-1.89zM18.89,9.81c0,-1.49 -0.54,-2.63 -1.59,-3.39c-1.04,-0.75 -2.37,-1.13 -3.94,-1.13c-1.2,0 -2.23,0.27 -3.05,0.8c-1.31,0.83 -2.02,2.26 -2.11,4.25l-0.01,0.14h3.24v-0.13c0,-0.54 0.16,-1.07 0.48,-1.57c0.31,-0.49 0.82,-0.73 1.57,-0.73c0.76,0 1.28,0.2 1.56,0.59c0.29,0.4 0.43,0.85 0.43,1.34c0,0.35 -0.15,0.71 -0.48,1.17c-0.14,0.21 -0.33,0.4 -0.56,0.57c-0.07,0.04 -1.64,1.05 -2.35,1.89c-0.45,0.53 -0.48,1.18 -0.52,2.27l-0.01,0.27h3.15l0,-0.13c0.01,-0.52 0.05,-0.59 0.13,-0.85c0.1,-0.33 0.38,-0.66 0.83,-1.01l0.82,-0.57c0.75,-0.58 1.34,-1.06 1.61,-1.44c0.52,-0.71 0.78,-1.49 0.78,-2.33z" />
		</g>
	</g>
</svg>
