<svg xmlns="http://www.w3.org/2000/svg" viewBox="0 0 14 14" width="27" height="27">
	<defs>
		<clipPath clipPathUnits="userSpaceOnUse" id="cp1">
			<path d="M0,13.5h13.5v-13.5h-13.5z" />
		</clipPath>
	</defs>
	<style>
		tspan { white-space:pre }
		.shp0 { fill: #7f7f7f }
	</style>
	<g id="Mask Group 76" clip-path="url(#cp1)">
		<g id="settings-for-categories">
			<g id="Group 339">
				<path id="Path 140" class="shp0" d="M13.5,9.45c0,2.24 -1.81,4.05 -4.05,4.05c-0.96,0 -1.85,-0.34 -2.54,-0.9h-2.41v-1.8h-2.7v-7.2h-1.8v-3.6h3.6v3.6h-0.9v1.8h1.8v-0.9h3.6v1.13c0.42,-0.15 0.88,-0.23 1.35,-0.23c2.24,0 4.05,1.81 4.05,4.05zM5.63,8.1h-1.14v-1.8h-1.8l0,3.6h1.8v-0.9h0.93c0.03,-0.31 0.11,-0.61 0.21,-0.9zM12.55,9.45c0,-1.71 -1.39,-3.09 -3.1,-3.1c-1.71,0 -3.09,1.39 -3.1,3.1c0,1.71 1.39,3.09 3.1,3.1c1.71,0 3.09,-1.39 3.1,-3.1z" />
				<path id="Path 141" class="shp0" d="M11.7,9v0.9h-0.75c-0.03,0.1 -0.07,0.2 -0.12,0.29l0.55,0.54l-0.64,0.64l-0.55,-0.55c-0.09,0.05 -0.19,0.09 -0.29,0.12v0.75h-0.9v-0.75c-0.09,-0.03 -0.19,-0.06 -0.27,-0.11l-0.53,0.53l-0.64,-0.64l0.52,-0.52c-0.06,-0.1 -0.1,-0.2 -0.13,-0.31h-0.75v-0.9h0.75c0.03,-0.1 0.07,-0.2 0.12,-0.29l-0.51,-0.51l0.64,-0.64l0.51,0.51c0.09,-0.05 0.19,-0.09 0.29,-0.12v-0.75h0.9v0.75c0.11,0.03 0.21,0.08 0.31,0.13l0.52,-0.52l0.64,0.64l-0.53,0.53c0.04,0.09 0.08,0.18 0.11,0.27zM10.12,9.45c0,-0.37 -0.3,-0.67 -0.67,-0.68c-0.37,0 -0.67,0.3 -0.68,0.68c0,0.37 0.3,0.67 0.68,0.67c0.37,0 0.67,-0.3 0.67,-0.67z" />
			</g>
		</g>
	</g>
</svg>
