<svg xmlns="http://www.w3.org/2000/svg" viewBox="0 0 14 14" width="27" height="27">
	<defs>
		<clipPath clipPathUnits="userSpaceOnUse" id="cp1">
			<path d="M0,13.5h13.5v-13.5h-13.5z" />
		</clipPath>
	</defs>
	<style>
		tspan { white-space:pre }
		.shp0 { fill: #7f7f7f }
	</style>
	<g id="Mask Group 69" clip-path="url(#cp1)">
		<g id="email">
			<g id="Group 289">
				<path id="Path 135" class="shp0" d="M13.5,6.75c0,3.73 -3.02,6.75 -6.75,6.75c-3.73,0 -6.75,-3.02 -6.75,-6.75c0,-3.73 3.02,-6.75 6.75,-6.75c3.73,0 6.75,3.02 6.75,6.75zM2.76,4.86h7.99l-3.99,-2.49zM10.79,5.02c0,-0.04 0,-0.08 -0.01,-0.12l-3.82,2.38c0,0 -0.01,0 -0.01,0.01c0,0 -0.01,0.01 -0.02,0.01c-0.03,0.01 -0.05,0.03 -0.08,0.03c0,0 -0.01,0 -0.01,0c-0.03,0.01 -0.06,0.01 -0.09,0.01h0c-0.03,0 -0.06,0 -0.09,-0.01c0,0 -0.01,0 -0.01,0c-0.03,-0.01 -0.06,-0.02 -0.08,-0.03c-0.01,0 -0.01,-0.01 -0.02,-0.01c0,0 -0.01,0 -0.01,-0.01l-3.82,-2.38c-0.01,0.04 -0.01,0.08 -0.01,0.12v3.82c0,0.4 0.32,0.72 0.72,0.72h6.64c0.4,0 0.72,-0.32 0.72,-0.72h0z" />
			</g>
		</g>
	</g>
</svg>
