<svg xmlns="http://www.w3.org/2000/svg" viewBox="0 0 27 25" width="27" height="25">
	<defs>
		<clipPath clipPathUnits="userSpaceOnUse" id="cp1">
			<path d="M0,26h27v-27h-27z" />
		</clipPath>
	</defs>
	<style>
		tspan { white-space:pre }
		.shp0 { fill: #7f7f7f }
	</style>
	<g id="Mask Group 8" clip-path="url(#cp1)">
		<g id="users">
			<path id="Ellipse 1" class="shp0" d="M6.21,16.74c0,-1.15 -0.93,-2.07 -2.07,-2.07c-1.15,0 -2.07,0.93 -2.07,2.07c0,1.15 0.93,2.07 2.07,2.07c1.15,0 2.07,-0.93 2.07,-2.07z" />
			<path id="Path 23" class="shp0" d="M4.14,20.59c-2.29,0 -4.14,1.85 -4.14,4.14h8.28c0,-2.29 -1.85,-4.14 -4.14,-4.14z" />
			<path id="Ellipse 2" class="shp0" d="M24.93,16.74c0,-1.15 -0.93,-2.07 -2.07,-2.07c-1.15,0 -2.07,0.93 -2.07,2.07c0,1.15 0.93,2.07 2.07,2.07c1.15,0 2.07,-0.93 2.07,-2.07z" />
			<path id="Path 24" class="shp0" d="M22.86,20.59c-2.29,0 -4.14,1.85 -4.14,4.14h8.28c0,-2.29 -1.85,-4.14 -4.14,-4.14z" />
			<path id="Ellipse 3" class="shp0" d="M15.57,2.33c0,-1.15 -0.93,-2.07 -2.07,-2.07c-1.15,0 -2.07,0.93 -2.07,2.07c0,1.15 0.93,2.07 2.07,2.07c1.15,0 2.07,-0.93 2.07,-2.07z" />
			<path id="Path 25" class="shp0" d="M13.5,6.19c-2.29,0 -4.14,1.85 -4.14,4.14h8.28c0,-2.29 -1.85,-4.14 -4.14,-4.14z" />
			<path id="Path 26" class="shp0" d="M14.39,13.29h-1.78v4.04l-3.5,2.02l0.89,1.54l3.5,-2.02l3.5,2.02l0.89,-1.54l-3.5,-2.02z" />
		</g>
	</g>
</svg>
