<svg xmlns="http://www.w3.org/2000/svg" viewBox="0 0 40 42" width="40" height="42">
	<defs>
		<clipPath clipPathUnits="userSpaceOnUse" id="cp1">
			<path d="M0,41h40v-40h-40z" />
		</clipPath>
	</defs>
	<style>
		tspan { white-space:pre }
		.shp0 { fill: #ffffff }
	</style>
	<g id="Botão Notificações Navbar">
		<g id="Mask Group 20" clip-path="url(#cp1)">
			<g id="notification">
				<g id="Group 50">
					<path id="Path 61" class="shp0" d="M40,21c0,11.05 -8.96,20 -20,20c-11.05,0 -20,-8.96 -20,-20c0,-11.04 8.95,-20 20,-20c11.05,0 20,8.95 20,20zM22.6,29.46h-5.2c0,1.44 1.16,2.6 2.6,2.6c1.44,0 2.6,-1.16 2.6,-2.6zM28.79,26.69c0,-0.69 -0.41,-1.28 -0.99,-1.56l-0.55,-4.77c0,-3.49 -2.47,-6.4 -5.75,-7.09v-1.85c0,-0.82 -0.67,-1.49 -1.49,-1.49c-0.82,0 -1.49,0.67 -1.49,1.49v1.85c-3.29,0.69 -5.75,3.6 -5.75,7.09l-0.55,4.77c-0.58,0.28 -0.99,0.87 -0.99,1.56v0.17c0,0.96 0.78,1.02 1.74,1.02h14.09c0.96,0 1.74,-0.06 1.74,-1.02h0z" />
				</g>
			</g>
		</g>
	</g>
</svg>
