<svg xmlns="http://www.w3.org/2000/svg" viewBox="0 0 28 27" width="28" height="27">
	<defs>
		<clipPath clipPathUnits="userSpaceOnUse" id="cp1">
			<path d="M1,27h27v-27h-27z" />
		</clipPath>
	</defs>
	<style>
		tspan { white-space:pre }
		.shp0 { fill: #7f7f7f }
	</style>
	<g id="Mask Group 16" clip-path="url(#cp1)">
		<g id="settings">
			<g id="Group 45">
				<path id="Path 54" class="shp0" d="M28,12.31v2.37c0,0.82 -0.59,1.51 -1.39,1.65l-1.9,0.32c-0.19,0.63 -0.45,1.25 -0.76,1.84l1.12,1.57c0.47,0.67 0.39,1.57 -0.18,2.15l-1.68,1.68c-0.32,0.32 -0.73,0.49 -1.18,0.49c-0.35,0 -0.69,-0.11 -0.97,-0.31l-1.56,-1.12c-0.59,0.31 -1.2,0.56 -1.84,0.76l-0.32,1.9c-0.14,0.81 -0.83,1.39 -1.65,1.39h-2.38c-0.82,0 -1.51,-0.59 -1.65,-1.39l-0.32,-1.9c-0.61,-0.19 -1.21,-0.43 -1.78,-0.73l-1.58,1.13c-0.28,0.2 -0.61,0.31 -0.96,0.31c-0.45,0 -0.86,-0.17 -1.18,-0.49l-1.68,-1.68c-0.58,-0.58 -0.65,-1.48 -0.18,-2.15l1.11,-1.55c-0.32,-0.59 -0.58,-1.2 -0.77,-1.83l-1.92,-0.33c-0.81,-0.14 -1.39,-0.83 -1.39,-1.65v-2.37c0,-0.82 0.59,-1.51 1.39,-1.65l1.87,-0.32c0.19,-0.64 0.44,-1.25 0.75,-1.84l-1.13,-1.58c-0.47,-0.67 -0.39,-1.57 0.18,-2.15l1.69,-1.68c0.31,-0.32 0.73,-0.49 1.18,-0.49c0.35,0 0.69,0.11 0.97,0.31l1.55,1.12c0.59,-0.32 1.2,-0.58 1.83,-0.77l0.33,-1.92c0.14,-0.81 0.83,-1.39 1.65,-1.39h2.37c0.82,0 1.51,0.59 1.65,1.39l0.32,1.87c0.66,0.2 1.3,0.46 1.91,0.78l1.57,-1.12c0.28,-0.2 0.61,-0.31 0.96,-0.31c0.45,0 0.86,0.17 1.18,0.49l1.68,1.68c0.58,0.58 0.65,1.48 0.18,2.15l-1.12,1.56c0.31,0.59 0.56,1.2 0.76,1.84l1.9,0.32c0.81,0.14 1.39,0.83 1.38,1.65zM26.49,14.69v-2.37c0,-0.07 -0.05,-0.14 -0.12,-0.15l-2.37,-0.4c-0.29,-0.05 -0.54,-0.26 -0.61,-0.56c-0.21,-0.83 -0.54,-1.62 -0.98,-2.36c-0.15,-0.26 -0.14,-0.59 0.03,-0.83l1.39,-1.96c0.04,-0.06 0.03,-0.14 -0.02,-0.19l-1.68,-1.68c-0.04,-0.04 -0.08,-0.05 -0.11,-0.05c-0.03,0 -0.06,0.01 -0.08,0.03l-1.95,1.4c-0.25,0.17 -0.57,0.19 -0.83,0.03c-0.76,-0.45 -1.57,-0.78 -2.42,-0.99c-0.29,-0.07 -0.51,-0.32 -0.56,-0.61l-0.39,-2.35c-0.01,-0.07 -0.07,-0.12 -0.15,-0.12h-2.37c-0.07,0 -0.14,0.05 -0.15,0.12l-0.41,2.39c-0.05,0.29 -0.27,0.53 -0.56,0.61c-0.83,0.21 -1.62,0.55 -2.36,0.99c-0.26,0.15 -0.59,0.14 -0.83,-0.03l-1.95,-1.39c-0.02,-0.02 -0.05,-0.03 -0.08,-0.03c-0.03,0 -0.07,0.01 -0.11,0.05l-1.68,1.68c-0.05,0.05 -0.06,0.14 -0.02,0.19l1.4,1.97c0.17,0.24 0.19,0.56 0.04,0.82c-0.43,0.74 -0.76,1.54 -0.96,2.37c-0.07,0.29 -0.32,0.51 -0.61,0.56l-2.35,0.4c-0.07,0.01 -0.12,0.07 -0.12,0.15v2.37c0,0.07 0.05,0.14 0.12,0.15l2.39,0.41c0.29,0.05 0.53,0.27 0.61,0.56c0.21,0.83 0.55,1.62 0.99,2.36c0.15,0.26 0.14,0.59 -0.03,0.83l-1.39,1.95c-0.04,0.06 -0.03,0.14 0.02,0.19l1.68,1.68c0.04,0.04 0.08,0.05 0.11,0.05c0.03,0 0.06,-0.01 0.08,-0.03l1.97,-1.4c0.13,-0.1 0.29,-0.14 0.44,-0.14c0.13,0 0.26,0.03 0.38,0.1c0.73,0.42 1.51,0.74 2.31,0.95c0.29,0.07 0.51,0.31 0.56,0.61l0.39,2.37c0.01,0.07 0.07,0.12 0.15,0.12h2.37c0.07,0 0.14,-0.05 0.15,-0.12l0.4,-2.37c0.04,-0.29 0.26,-0.54 0.56,-0.61c0.83,-0.21 1.62,-0.54 2.36,-0.98c0.26,-0.15 0.59,-0.14 0.83,0.03l1.96,1.39c0.02,0.02 0.05,0.03 0.08,0.03c0.03,0 0.07,-0.01 0.11,-0.05l1.68,-1.68c0.05,-0.05 0.06,-0.14 0.02,-0.19l-1.39,-1.96c-0.17,-0.25 -0.19,-0.57 -0.03,-0.83c0.44,-0.74 0.77,-1.53 0.98,-2.36c0.07,-0.29 0.31,-0.51 0.61,-0.56l2.37,-0.39c0.07,-0.01 0.12,-0.07 0.12,-0.15z" />
				<path id="Path 55" class="shp0" d="M20.33,13.5c0,3.21 -2.61,5.83 -5.83,5.83c-3.21,0 -5.83,-2.61 -5.83,-5.83c0,-3.21 2.61,-5.83 5.83,-5.83c3.21,0 5.83,2.61 5.83,5.83zM18.81,13.5c0,-2.37 -1.93,-4.3 -4.3,-4.3c-2.37,0 -4.3,1.93 -4.3,4.3c0,2.37 1.93,4.3 4.3,4.3c2.37,0 4.3,-1.93 4.3,-4.3z" />
			</g>
		</g>
	</g>
</svg>
