<svg xmlns="http://www.w3.org/2000/svg" viewBox="0 0 27 27" width="27" height="27">
	<defs>
		<clipPath clipPathUnits="userSpaceOnUse" id="cp1">
			<path d="M0,27h27v-27h-27z" />
		</clipPath>
	</defs>
	<style>
		tspan { white-space:pre }
		.shp0 { fill: #7f7f7f }
	</style>
	<g id="Mask Group 36" clip-path="url(#cp1)">
		<g id="group">
			<path id="Path 91" class="shp0" d="M4.2,5.62c0.3,0.23 0.73,0.17 0.95,-0.13c2.01,-2.63 5.05,-4.14 8.35,-4.14c3.3,0 6.34,1.51 8.35,4.14c0.13,0.18 0.34,0.27 0.54,0.27c0.14,0 0.29,-0.05 0.41,-0.14c0.3,-0.23 0.36,-0.65 0.13,-0.95c-2.27,-2.97 -5.7,-4.67 -9.43,-4.67c-3.73,0 -7.16,1.7 -9.43,4.67c-0.23,0.3 -0.17,0.73 0.13,0.95z" />
			<path id="Path 92" class="shp0" d="M20.73,9.25c0,1.17 0.95,2.12 2.12,2.12c1.17,0 2.12,-0.95 2.12,-2.12c0,-1.17 -0.95,-2.12 -2.12,-2.12c-1.17,0 -2.12,0.95 -2.12,2.12z" />
			<path id="Path 93" class="shp0" d="M25.03,12.08c0,0 -0.54,-0.17 -0.54,-0.17c-0.19,-0.06 -0.4,-0.02 -0.57,0.1l-1.07,0.8l-1.07,-0.8c-0.16,-0.12 -0.37,-0.16 -0.57,-0.1c0,0 -0.54,0.16 -0.54,0.17c-0.86,0.29 -1.44,1.09 -1.44,2v3.21c0,0.12 0.04,0.24 0.1,0.35l1.08,1.64v4.3c0,0.35 0.28,0.63 0.63,0.63h3.6c0.35,0 0.63,-0.28 0.63,-0.63v-4.3l1.08,-1.64c0.07,-0.1 0.1,-0.22 0.1,-0.35v-3.21c0,-0.91 -0.58,-1.71 -1.44,-2z" />
			<path id="Path 94" class="shp0" d="M4.14,11.38c1.17,0 2.12,-0.95 2.12,-2.12c0,-1.17 -0.95,-2.12 -2.12,-2.12c-1.17,0 -2.12,0.95 -2.12,2.12c0,1.17 0.95,2.12 2.12,2.12z" />
			<path id="Path 95" class="shp0" d="M6.32,12.08c0,0 -0.54,-0.17 -0.54,-0.17c-0.19,-0.06 -0.4,-0.02 -0.57,0.1l-1.07,0.8l-1.07,-0.8c-0.16,-0.12 -0.37,-0.16 -0.57,-0.1c0,0 -0.54,0.16 -0.54,0.17c-0.86,0.29 -1.44,1.09 -1.44,2v3.21c0,0.12 0.04,0.24 0.1,0.35l1.08,1.64v4.3c0,0.35 0.28,0.63 0.63,0.63h3.6c0.35,0 0.63,-0.28 0.63,-0.63v-4.3l1.08,-1.64c0.07,-0.1 0.1,-0.22 0.1,-0.35v-3.21c0,-0.91 -0.58,-1.71 -1.44,-2z" />
			<path id="Path 96" class="shp0" d="M16.24,6.26c0,-1.51 -1.23,-2.74 -2.74,-2.74c-1.51,0 -2.74,1.23 -2.74,2.74c0,1.51 1.23,2.74 2.74,2.74c1.51,0 2.74,-1.23 2.74,-2.74z" />
			<path id="Path 97" class="shp0" d="M16.51,10.33l0,0l-0.78,-0.24c-0.12,-0.04 -0.26,0.03 -0.3,0.15l-1.64,4.51c-0.09,0.26 -0.46,0.26 -0.56,0l-1.64,-4.51c-0.04,-0.1 -0.13,-0.16 -0.23,-0.16c-0.02,0 -0.85,0.25 -0.85,0.25c-1,0.33 -1.67,1.26 -1.67,2.31v4.77c0,0.05 0.01,0.09 0.04,0.13l1.72,2.61v6.61c0,0.13 0.11,0.24 0.24,0.24h5.34c0.13,0 0.24,-0.11 0.24,-0.24v-6.61l1.72,-2.61c0.03,-0.04 0.04,-0.09 0.04,-0.13v-4.79c0,-1.04 -0.67,-1.97 -1.66,-2.29z" />
			<path id="Path 98" class="shp0" d="M14.14,10.23c-0.07,-0.07 -0.17,-0.11 -0.27,-0.11h-0.75c-0.1,0 -0.2,0.04 -0.27,0.11c-0.11,0.11 -0.12,0.28 -0.05,0.41l0.4,0.6l-0.19,1.58l0.37,0.98c0.04,0.1 0.18,0.1 0.21,0l0.37,-0.98l-0.19,-1.58l0.4,-0.6c0.07,-0.13 0.06,-0.29 -0.05,-0.41z" />
		</g>
	</g>
</svg>
