<svg xmlns="http://www.w3.org/2000/svg" viewBox="0 0 21 20" width="21" height="20">
	<defs>
		<clipPath clipPathUnits="userSpaceOnUse" id="cp1">
			<path d="M0.16,19.84h19.84v-19.84h-19.84z" />
		</clipPath>
	</defs>
	<style>
		tspan { white-space:pre }
		.shp0 { fill: #FFF }
	</style>
	<g id="Mask Group 21" clip-path="url(#cp1)">
		<g id="musica-searcher">
			<path id="Path 62" class="shp0" d="M19.51,19.36c-0.65,0.65 -1.7,0.65 -2.34,0l-4.31,-4.31c-0.02,-0.02 -0.04,-0.05 -0.06,-0.07c-1.29,0.85 -2.83,1.34 -4.48,1.34c-4.51,0 -8.16,-3.65 -8.16,-8.16c0,-4.51 3.65,-8.16 8.16,-8.16c4.51,0 8.16,3.65 8.16,8.16c0,1.66 -0.5,3.2 -1.34,4.48c0.02,0.02 0.05,0.04 0.07,0.06l4.31,4.31c0.65,0.65 0.65,1.7 0,2.35zM13.64,8.16c0,-2.94 -2.39,-5.33 -5.33,-5.33c-2.94,0 -5.33,2.39 -5.33,5.33c0,2.94 2.39,5.33 5.33,5.33c2.94,0 5.33,-2.39 5.33,-5.33z" />
		</g>
	</g>
</svg>
