<svg xmlns="http://www.w3.org/2000/svg" viewBox="0 0 40 40" width="40" height="40">
	<defs>
		<clipPath clipPathUnits="userSpaceOnUse" id="cp1">
			<path d="M0,40h40v-40h-40z" />
		</clipPath>
	</defs>
	<style>
		tspan { white-space:pre }
		.shp0 { fill: #ffffff }
	</style>
	<g id="Mask Group 19" clip-path="url(#cp1)">
		<g id="logout">
			<g id="Group 49">
				<g id="Group 48">
					<path id="Path 59" class="shp0" d="M39.87,17.7c-0.09,-0.2 -0.21,-0.39 -0.36,-0.54l-5,-5c-0.65,-0.65 -1.71,-0.65 -2.36,0c-0.65,0.65 -0.65,1.71 0,2.36l2.16,2.16h-9.31c-0.92,0 -1.67,0.75 -1.67,1.67c0,0.92 0.74,1.67 1.67,1.67h9.31l-2.16,2.16c-0.65,0.65 -0.65,1.71 0,2.36c0.32,0.33 0.75,0.49 1.18,0.49c0.43,0 0.85,-0.16 1.18,-0.49l5,-5c0.15,-0.15 0.28,-0.34 0.36,-0.54c0.17,-0.41 0.17,-0.87 0,-1.27z" />
					<path id="Path 60" class="shp0" d="M28.33,23.33c-0.92,0 -1.67,0.75 -1.67,1.67v8.33h-6.67v-26.67c0,-0.73 -0.48,-1.39 -1.19,-1.6l-5.79,-1.74h13.64v8.33c0,0.92 0.74,1.67 1.67,1.67c0.92,0 1.67,-0.75 1.67,-1.67v-10c0,-0.92 -0.75,-1.67 -1.67,-1.67h-26.67c-0.06,0 -0.11,0.02 -0.17,0.03c-0.08,0.01 -0.15,0.02 -0.22,0.04c-0.18,0.05 -0.33,0.11 -0.48,0.21c-0.04,0.02 -0.08,0.02 -0.12,0.05c-0.01,0.01 -0.02,0.03 -0.03,0.04c-0.18,0.14 -0.33,0.32 -0.44,0.53c-0.02,0.05 -0.03,0.09 -0.05,0.14c-0.05,0.13 -0.11,0.25 -0.13,0.39c-0.01,0.05 0.01,0.1 0.01,0.14c0,0.03 -0.02,0.06 -0.02,0.1v33.33c0,0.79 0.56,1.48 1.34,1.63l16.67,3.33c0.11,0.02 0.22,0.03 0.33,0.03c0.38,0 0.76,-0.13 1.06,-0.38c0.39,-0.32 0.61,-0.79 0.61,-1.29v-1.67h8.33c0.92,0 1.67,-0.75 1.67,-1.67v-10c0,-0.92 -0.75,-1.67 -1.67,-1.67z" />
				</g>
			</g>
		</g>
	</g>
</svg>
