<svg xmlns="http://www.w3.org/2000/svg" viewBox="0 0 27 27" width="27" height="27">
	<defs>
		<clipPath clipPathUnits="userSpaceOnUse" id="cp1">
			<path d="M0,27h27v-27h-27z" />
		</clipPath>
	</defs>
	<style>
		tspan { white-space:pre }
		.shp0 { fill: #7f7f7f }
	</style>
	<g id="Mask Group 18" clip-path="url(#cp1)">
		<g id="logout">
			<g id="Group 47">
				<g id="Group 46">
					<path id="Path 57" class="shp0" d="M26.91,11.94c-0.06,-0.14 -0.14,-0.26 -0.24,-0.37l-3.37,-3.37c-0.44,-0.44 -1.15,-0.44 -1.59,0c-0.44,0.44 -0.44,1.15 0,1.59l1.45,1.45h-6.28c-0.62,0 -1.12,0.5 -1.12,1.13c0,0.62 0.5,1.13 1.12,1.13h6.28l-1.45,1.45c-0.44,0.44 -0.44,1.15 0,1.59c0.22,0.22 0.51,0.33 0.8,0.33c0.29,0 0.58,-0.11 0.8,-0.33l3.37,-3.37c0.1,-0.1 0.19,-0.23 0.24,-0.37c0.11,-0.27 0.11,-0.59 0,-0.86z" />
					<path id="Path 58" class="shp0" d="M19.13,15.75c-0.62,0 -1.12,0.5 -1.12,1.13v5.63h-4.5v-18c0,-0.5 -0.33,-0.93 -0.8,-1.08l-3.91,-1.17h9.21v5.63c0,0.62 0.5,1.13 1.12,1.13c0.62,0 1.12,-0.5 1.12,-1.13v-6.75c0,-0.62 -0.5,-1.13 -1.12,-1.13h-18c-0.04,0 -0.08,0.02 -0.12,0.02c-0.05,0.01 -0.1,0.01 -0.15,0.03c-0.12,0.03 -0.22,0.08 -0.33,0.14c-0.02,0.02 -0.06,0.02 -0.08,0.03c-0.01,0.01 -0.01,0.02 -0.02,0.03c-0.12,0.1 -0.22,0.22 -0.3,0.36c-0.02,0.03 -0.02,0.06 -0.03,0.09c-0.04,0.09 -0.08,0.17 -0.09,0.26c-0.01,0.03 0,0.07 0,0.1c0,0.02 -0.02,0.04 -0.02,0.07v22.5c0,0.54 0.38,1 0.9,1.1l11.25,2.25c0.07,0.02 0.15,0.02 0.22,0.02c0.26,0 0.51,-0.09 0.71,-0.26c0.26,-0.21 0.41,-0.53 0.41,-0.87v-1.13h5.62c0.62,0 1.12,-0.5 1.12,-1.13v-6.75c0,-0.62 -0.5,-1.13 -1.12,-1.13z" />
				</g>
			</g>
		</g>
	</g>
</svg>
