<?xml version="1.0"?>
<svg xmlns="http://www.w3.org/2000/svg" height="27px" version="1.1" viewBox="0 -84 512 512" width="27px">
<g id="surface1">
<path d="M 461 262 L 461 0 L 51 0 L 51 262 L 0 262 L 0 344 L 512 344 L 512 262 Z M 343.964844 120.542969 L 365.175781 99.332031 L 411.847656 146 L 365.175781 192.667969 L 343.964844 171.457031 L 369.421875 146 Z M 201 80 L 311 80 L 311 212 L 201 212 Z M 146.824219 99.332031 L 168.035156 120.542969 L 142.578125 146 L 168.035156 171.457031 L 146.824219 192.667969 L 100.152344 146 Z M 482 314 L 30 314 L 30 292 C 41.683594 292 463.722656 292 482 292 Z M 482 314 " style=" fill-rule:nonzero;fill-opacity:1;" stroke="#7f7f7f" fill="#7f7f7f"/>
</g>
</svg>
