<?xml version="1.0" encoding="iso-8859-1"?>
<!-- Generator: Adobe Illustrator 19.1.0, SVG Export Plug-In . SVG Version: 6.00 Build 0)  -->
<svg version="1.1" id="Capa_1" xmlns="http://www.w3.org/2000/svg" xmlns:xlink="http://www.w3.org/1999/xlink" x="0px" y="0px"
	 viewBox="0 0 296.555 296.555" style="enable-background:new 0 0 296.555 296.555;" xml:space="preserve">
<g>
	<rect x="96.861" y="185.109" style="fill:#EDBF85;" width="100" height="16"/>
	<path style="fill:#EDBF85;" d="M231.032,169.109c-2.708-43-39.052-78.273-83.338-78.273s-80.63,35.273-83.338,78.273H231.032z
		 M138.87,105.343c4.389-0.57,8.395,2.525,8.962,6.905c0.568,4.382-2.523,8.395-6.905,8.962
		c-16.987,2.201-32.59,12.864-40.72,27.829c-1.449,2.668-4.198,4.183-7.036,4.183c-1.29,0-2.599-0.314-3.812-0.973
		c-3.882-2.108-5.319-6.966-3.21-10.849C96.683,122.009,116.884,108.191,138.87,105.343z"/>
	<path style="fill:#EDBF85;" d="M236.861,223.272c0-3.584-2.583-6.163-6.167-6.163h-165c-3.584,0-6.833,2.579-6.833,6.163v9.837h178
		V223.272z"/>
	<path d="M230.694,201.109h-17.833v-16h26.333c4.418,0,7.667-3.282,7.667-7.7v-2.773c0-52.001-40-94.806-91-99.133V65.109
		c5,0,8.167-3.582,8.167-8s-3.415-8-7.833-8h-16c-4.418,0-8.167,3.582-8.167,8s3.833,8,7.833,8v10.308
		c-51,3.848-92,46.877-92,99.219v2.773c0,4.418,3.915,7.7,8.333,7.7h24.667v16H65.694c-12.406,0-22.833,9.757-22.833,22.163v17.5
		c0,4.418,3.915,8.337,8.333,8.337h194c4.418,0,7.667-3.919,7.667-8.337v-17.5C252.861,210.866,243.1,201.109,230.694,201.109z
		 M58.861,223.272c0-3.584,3.249-6.163,6.833-6.163h165c3.584,0,6.167,2.579,6.167,6.163v9.837h-178V223.272z M147.694,90.836
		c44.286,0,80.63,35.273,83.338,78.273H64.356C67.064,126.109,103.408,90.836,147.694,90.836z M196.861,185.109v16h-100v-16H196.861
		z"/>
	<path d="M89.358,152.249c1.214,0.659,2.522,0.973,3.812,0.973c2.838,0,5.587-1.515,7.036-4.183
		c8.13-14.965,23.732-25.628,40.72-27.829c4.382-0.567,7.474-4.58,6.905-8.962c-0.567-4.38-4.573-7.476-8.962-6.905
		c-21.985,2.849-42.187,16.666-52.722,36.058C84.039,145.283,85.476,150.141,89.358,152.249z"/>
	<path d="M61.439,73.232c1.582,1.886,3.849,2.857,6.132,2.857c1.814,0,3.64-0.614,5.139-1.872c3.385-2.84,3.826-7.886,0.985-11.27
		L63.41,50.69c-2.84-3.385-7.886-3.826-11.271-0.985c-3.385,2.84-3.826,7.886-0.985,11.271L61.439,73.232z"/>
	<path d="M45.862,106.395c2.209-3.826,0.897-8.72-2.929-10.929l-13.858-8c-3.826-2.208-8.719-0.898-10.929,2.929
		c-2.209,3.826-0.897,8.72,2.929,10.929l13.858,8c1.26,0.727,2.635,1.072,3.992,1.072C41.69,110.396,44.379,108.962,45.862,106.395z
		"/>
	<path d="M25.148,136.547L9.39,133.768c-4.343-0.761-8.501,2.138-9.268,6.49c-0.767,4.351,2.139,8.5,6.49,9.268l15.758,2.778
		c0.47,0.082,0.937,0.122,1.398,0.122c3.809,0,7.185-2.73,7.869-6.612C32.405,141.464,29.5,137.314,25.148,136.547z"/>
	<path d="M296.432,139.333c-0.768-4.352-4.912-7.244-9.268-6.49l-15.757,2.777c-4.352,0.768-7.257,4.916-6.49,9.268
		c0.685,3.882,4.06,6.612,7.869,6.612c0.461,0,0.929-0.04,1.398-0.122l15.757-2.777
		C294.294,147.833,297.199,143.684,296.432,139.333z"/>
	<path d="M278.122,89.698c-2.208-3.827-7.103-5.139-10.928-2.93l-13.857,7.999c-3.827,2.209-5.139,7.102-2.93,10.928
		c1.481,2.567,4.171,4.002,6.936,4.002c1.357,0,2.732-0.346,3.991-1.072l13.857-7.999C279.019,98.417,280.331,93.524,278.122,89.698
		z"/>
	<path d="M223.368,73.83c1.499,1.258,3.323,1.872,5.139,1.872c2.282,0,4.55-0.972,6.132-2.857l10.286-12.256
		c2.84-3.384,2.399-8.43-0.985-11.27c-3.385-2.84-8.431-2.4-11.271,0.985l-10.286,12.256
		C219.543,65.943,219.983,70.989,223.368,73.83z"/>
</g>
<g>
</g>
<g>
</g>
<g>
</g>
<g>
</g>
<g>
</g>
<g>
</g>
<g>
</g>
<g>
</g>
<g>
</g>
<g>
</g>
<g>
</g>
<g>
</g>
<g>
</g>
<g>
</g>
<g>
</g>
</svg>
