<svg height="511pt" viewBox="-17 0 511 511.9998" width="511pt" xmlns="http://www.w3.org/2000/svg"><path d="m9.175781 43.386719h416.523438v416.519531h-416.523438zm0 0" fill="#fcfcfc"/><path d="m9.175781 43.386719h416.523438v86.777343h-416.523438zm0 0" fill="#EDBF85"/><g fill="#E85858"><path d="m61.242188 182.226562h52.066406v52.066407h-52.066406zm0 0"/><path d="m148.015625 182.226562h52.066406v52.066407h-52.066406zm0 0"/><path d="m234.792969 182.226562h52.066406v52.066407h-52.066406zm0 0"/><path d="m321.566406 182.226562h52.066406v52.066407h-52.066406zm0 0"/><path d="m61.242188 269.003906h52.066406v52.0625h-52.066406zm0 0"/><path d="m148.015625 269.003906h52.066406v52.0625h-52.066406zm0 0"/><path d="m234.792969 269.003906h52.066406v52.0625h-52.066406zm0 0"/><path d="m321.566406 269.003906h52.066406v52.0625h-52.066406zm0 0"/><path d="m61.242188 355.777344h52.066406v52.066406h-52.066406zm0 0"/><path d="m148.015625 355.777344h52.066406v52.066406h-52.066406zm0 0"/><path d="m234.792969 355.777344h52.066406v52.066406h-52.066406zm0 0"/></g><path d="m217.4375 8.675781c9.585938 0 17.355469 7.773438 17.355469 17.355469v34.710938c0 9.585937-7.769531 17.355468-17.355469 17.355468s-17.355469-7.769531-17.355469-17.355468v-34.710938c0-9.582031 7.769531-17.355469 17.355469-17.355469zm0 0" fill="#b9b9b9"/><path d="m148.015625 8.675781c9.585937 0 17.355469 7.773438 17.355469 17.355469v34.710938c0 9.585937-7.769532 17.355468-17.355469 17.355468-9.582031 0-17.351563-7.769531-17.351563-17.355468v-34.710938c0-9.582031 7.769532-17.355469 17.351563-17.355469zm0 0" fill="#fcfcfc"/><path d="m356.277344 8.675781c9.585937 0 17.355468 7.773438 17.355468 17.355469v34.710938c0 9.585937-7.769531 17.355468-17.355468 17.355468-9.585938 0-17.355469-7.769531-17.355469-17.355468v-34.710938c0-9.582031 7.769531-17.355469 17.355469-17.355469zm0 0" fill="#b9b9b9"/><path d="m286.859375 8.675781c9.582031 0 17.351563 7.773438 17.351563 17.355469v34.710938c0 9.585937-7.769532 17.355468-17.351563 17.355468-9.585937 0-17.355469-7.769531-17.355469-17.355468v-34.710938c0-9.582031 7.769532-17.355469 17.355469-17.355469zm0 0" fill="#fcfcfc"/><path d="m78.597656 8.675781c9.585938 0 17.355469 7.773438 17.355469 17.355469v34.710938c0 9.585937-7.769531 17.355468-17.355469 17.355468-9.585937 0-17.355468-7.769531-17.355468-17.355468v-34.710938c0-9.582031 7.769531-17.355469 17.355468-17.355469zm0 0" fill="#b9b9b9"/><path d="m469.085938 425.199219c0 43.128906-34.964844 78.097656-78.097657 78.097656-43.132812 0-78.097656-34.96875-78.097656-78.097656 0-43.132813 34.964844-78.097657 78.097656-78.097657 43.132813 0 78.097657 34.964844 78.097657 78.097657zm0 0" fill="#9CC283"/><path d="m382.308594 442.550781c-2.300782 0-4.507813-.914062-6.132813-2.539062l-26.03125-26.035157c-3.332031-3.445312-3.234375-8.941406.210938-12.269531 3.363281-3.246093 8.695312-3.246093 12.058593 0l20.539063 20.539063 37.3125-29.859375c3.742187-2.996094 9.207031-2.386719 12.199219 1.355469 2.996094 3.742187 2.390625 9.203124-1.351563 12.199218l-43.386719 34.710938c-1.539062 1.230468-3.449218 1.898437-5.417968 1.898437zm0 0" fill="#9cc283"/><path d="m113.308594 173.550781h-52.066406c-4.792969 0-8.675782 3.882813-8.675782 8.675781v52.066407c0 4.792969 3.882813 8.675781 8.675782 8.675781h52.066406c4.792968 0 8.675781-3.882812 8.675781-8.675781v-52.066407c0-4.792968-3.882813-8.675781-8.675781-8.675781zm-8.679688 52.0625h-34.710937v-34.707031h34.710937zm0 0"/><path d="m200.082031 173.550781h-52.066406c-4.789063 0-8.675781 3.882813-8.675781 8.675781v52.066407c0 4.792969 3.886718 8.675781 8.675781 8.675781h52.066406c4.792969 0 8.679688-3.882812 8.679688-8.675781v-52.066407c0-4.792968-3.886719-8.675781-8.679688-8.675781zm-8.675781 52.0625h-34.710938v-34.707031h34.710938zm0 0"/><path d="m286.859375 173.550781h-52.066406c-4.792969 0-8.675781 3.882813-8.675781 8.675781v52.066407c0 4.792969 3.882812 8.675781 8.675781 8.675781h52.066406c4.789063 0 8.675781-3.882812 8.675781-8.675781v-52.066407c0-4.792968-3.886718-8.675781-8.675781-8.675781zm-8.679687 52.0625h-34.710938v-34.707031h34.710938zm0 0"/><path d="m321.566406 242.96875h52.066406c4.792969 0 8.675782-3.882812 8.675782-8.675781v-52.066407c0-4.792968-3.882813-8.675781-8.675782-8.675781h-52.066406c-4.792968 0-8.675781 3.882813-8.675781 8.675781v52.066407c0 4.792969 3.882813 8.675781 8.675781 8.675781zm8.679688-52.0625h34.707031v34.707031h-34.707031zm0 0"/><path d="m113.308594 260.324219h-52.066406c-4.792969 0-8.675782 3.886719-8.675782 8.679687v52.0625c0 4.792969 3.882813 8.679688 8.675782 8.679688h52.066406c4.792968 0 8.675781-3.886719 8.675781-8.679688v-52.0625c0-4.792968-3.882813-8.679687-8.675781-8.679687zm-8.679688 52.066406h-34.710937v-34.710937h34.710937zm0 0"/><path d="m200.082031 260.324219h-52.066406c-4.789063 0-8.675781 3.886719-8.675781 8.679687v52.0625c0 4.792969 3.886718 8.679688 8.675781 8.679688h52.066406c4.792969 0 8.679688-3.886719 8.679688-8.679688v-52.0625c0-4.792968-3.886719-8.679687-8.679688-8.679687zm-8.675781 52.066406h-34.710938v-34.710937h34.710938zm0 0"/><path d="m286.859375 260.324219h-52.066406c-4.792969 0-8.675781 3.886719-8.675781 8.679687v52.0625c0 4.792969 3.882812 8.679688 8.675781 8.679688h52.066406c4.789063 0 8.675781-3.886719 8.675781-8.679688v-52.0625c0-4.792968-3.886718-8.679687-8.675781-8.679687zm-8.679687 52.066406h-34.710938v-34.710937h34.710938zm0 0"/><path d="m321.566406 329.746094h52.066406c4.792969 0 8.675782-3.886719 8.675782-8.679688v-52.0625c0-4.792968-3.882813-8.679687-8.675782-8.679687h-52.066406c-4.792968 0-8.675781 3.886719-8.675781 8.679687v52.0625c0 4.792969 3.882813 8.679688 8.675781 8.679688zm8.679688-52.066406h34.707031v34.710937h-34.707031zm0 0"/><path d="m113.308594 347.101562h-52.066406c-4.792969 0-8.675782 3.882813-8.675782 8.675782v52.066406c0 4.792969 3.882813 8.675781 8.675782 8.675781h52.066406c4.792968 0 8.675781-3.882812 8.675781-8.675781v-52.066406c0-4.792969-3.882813-8.675782-8.675781-8.675782zm-8.679688 52.0625h-34.710937v-34.710937h34.710937zm0 0"/><path d="m200.082031 347.101562h-52.066406c-4.789063 0-8.675781 3.882813-8.675781 8.675782v52.066406c0 4.792969 3.886718 8.675781 8.675781 8.675781h52.066406c4.792969 0 8.679688-3.882812 8.679688-8.675781v-52.066406c0-4.792969-3.886719-8.675782-8.679688-8.675782zm-8.675781 52.0625h-34.710938v-34.710937h34.710938zm0 0"/><path d="m286.859375 347.101562h-52.066406c-4.792969 0-8.675781 3.882813-8.675781 8.675782v52.066406c0 4.792969 3.882812 8.675781 8.675781 8.675781h52.066406c4.789063 0 8.675781-3.882812 8.675781-8.675781v-52.066406c0-4.792969-3.886718-8.675782-8.675781-8.675782zm-8.679687 52.0625h-34.710938v-34.710937h34.710938zm0 0"/><path d="m434.375 350.164062v-306.777343c0-4.792969-3.886719-8.675781-8.675781-8.675781h-43.390625v-8.679688c0-14.375-11.652344-26.03125-26.03125-26.03125s-26.03125 11.65625-26.03125 26.03125v8.679688h-17.355469v-8.679688c0-14.375-11.65625-26.03125-26.03125-26.03125-14.378906 0-26.035156 11.65625-26.035156 26.03125v8.679688h-17.355469v-8.679688c0-14.375-11.652344-26.03125-26.03125-26.03125s-26.03125 11.65625-26.03125 26.03125v8.679688h-17.355469v-8.679688c0-14.375-11.65625-26.03125-26.035156-26.03125-14.375 0-26.03125 11.65625-26.03125 26.03125v8.679688h-17.355469v-8.679688c0-14.375-11.652344-26.03125-26.03125-26.03125s-26.03125 11.65625-26.03125 26.03125v8.679688h-43.390625c-4.789062 0-8.675781 3.882812-8.675781 8.675781v416.519531c0 4.792969 3.886719 8.679688 8.675781 8.679688h306.777344c23.917969 41.484374 76.9375 55.726562 118.421875 31.808593 41.484375-23.914062 55.726562-76.933593 31.8125-118.417969-7.621094-13.21875-18.59375-24.191406-31.8125-31.8125zm-86.773438-324.132812c0-4.792969 3.882813-8.675781 8.675782-8.675781 4.792968 0 8.675781 3.882812 8.675781 8.675781v34.710938c0 4.792968-3.882813 8.675781-8.675781 8.675781-4.792969 0-8.675782-3.882813-8.675782-8.675781zm-69.421874 0c0-4.792969 3.886718-8.675781 8.675781-8.675781 4.792969 0 8.679687 3.882812 8.679687 8.675781v34.710938c0 4.792968-3.886718 8.675781-8.679687 8.675781-4.789063 0-8.675781-3.882813-8.675781-8.675781zm-69.417969 0c0-4.792969 3.882812-8.675781 8.675781-8.675781s8.675781 3.882812 8.675781 8.675781v34.710938c0 4.792968-3.882812 8.675781-8.675781 8.675781s-8.675781-3.882813-8.675781-8.675781zm-69.421875 0c0-4.792969 3.886718-8.675781 8.675781-8.675781 4.792969 0 8.679687 3.882812 8.679687 8.675781v34.710938c0 4.792968-3.886718 8.675781-8.679687 8.675781-4.789063 0-8.675781-3.882813-8.675781-8.675781zm-69.417969 0c0-4.792969 3.882813-8.675781 8.675781-8.675781 4.792969 0 8.675782 3.882812 8.675782 8.675781v34.710938c0 4.792968-3.882813 8.675781-8.675782 8.675781-4.792968 0-8.675781-3.882813-8.675781-8.675781zm-52.066406 26.035156h34.710937v8.675782c0 14.378906 11.652344 26.03125 26.03125 26.03125s26.03125-11.652344 26.03125-26.03125v-8.675782h17.355469v8.675782c0 14.378906 11.65625 26.03125 26.03125 26.03125 14.378906 0 26.035156-11.652344 26.035156-26.03125v-8.675782h17.355469v8.675782c0 14.378906 11.652344 26.03125 26.03125 26.03125 14.375 0 26.03125-11.652344 26.03125-26.03125v-8.675782h17.355469v8.675782c0 14.378906 11.65625 26.03125 26.03125 26.03125 14.378906 0 26.03125-11.652344 26.03125-26.03125v-8.675782h17.355469v8.675782c0 14.378906 11.65625 26.03125 26.035156 26.03125 14.375 0 26.03125-11.652344 26.03125-26.03125v-8.675782h34.710937v69.417969h-399.164062zm0 399.164063v-312.390625h399.164062v203.582031c-45.71875-14.375-94.433593 11.035156-108.804687 56.753906-5.328125 16.941407-5.328125 35.113281 0 52.054688zm373.132812 43.386719c-38.339843 0-69.421875-31.082032-69.421875-69.417969 0-38.339844 31.082032-69.421875 69.421875-69.421875 38.339844 0 69.417969 31.082031 69.417969 69.421875-.042969 38.320312-31.097656 69.375-69.417969 69.417969zm0 0"/><path d="m420.273438 392.386719-37.3125 29.871093-20.539063-20.550781c-3.390625-3.386719-8.886719-3.386719-12.273437.003907-3.390626 3.390624-3.386719 8.886718.003906 12.273437l26.03125 26.035156c3.125 3.128907 8.105468 3.402344 11.558594.640625l43.386718-34.710937c3.746094-2.992188 4.355469-8.457031 1.359375-12.203125-2.996093-3.746094-8.460937-4.355469-12.207031-1.359375zm0 0"/></svg>
