<?xml version="1.0" encoding="iso-8859-1"?>
<!-- Generator: Adobe Illustrator 22.0.0, SVG Export Plug-In . SVG Version: 6.00 Build 0)  -->
<svg xmlns="http://www.w3.org/2000/svg" xmlns:xlink="http://www.w3.org/1999/xlink" version="1.1" x="0px" y="0px" viewBox="0 0 40 60" style="enable-background:new 0 0 40 60;" xml:space="preserve" width="512" height="512">
<g id="_x31_7-Lock">
	<g>
		<path style="fill:#EDBF85;" d="M29,37V14c0-4.879-4.121-9-9-9s-9,4.121-9,9v23H7V14C7,6.882,12.882,1,20,1h0    c7.118,0,13,5.882,13,13v23H29z"/>
	</g>
	<path style="fill:#9CC283;" d="M36,59H4c-1.657,0-3-1.343-3-3V30c0-1.657,1.343-3,3-3h32c1.657,0,3,1.343,3,3v26   C39,57.657,37.657,59,36,59z"/>
	<path style="fill:#EDBF85;" d="M24,39c0-2.209-1.791-4-4-4s-4,1.791-4,4c0,1.477,0.809,2.752,2,3.445L17,51h6l-1-8.555   C23.191,41.752,24,40.477,24,39z"/>
	<path style="fill:#000;" d="M36,60H4c-2.206,0-4-1.794-4-4V30c0-2.206,1.794-4,4-4h32c2.206,0,4,1.794,4,4v26   C40,58.206,38.206,60,36,60z M4,28c-1.103,0-2,0.897-2,2v26c0,1.103,0.897,2,2,2h32c1.103,0,2-0.897,2-2V30c0-1.103-0.897-2-2-2H4z   "/>
	<g>
		<path style="fill:#000;" d="M33,28h-4c-0.552,0-1-0.448-1-1V14c0-4.336-3.664-8-8-8s-8,3.664-8,8v13c0,0.552-0.448,1-1,1H7    c-0.552,0-1-0.448-1-1V14C6,6.28,12.28,0,20,0s14,6.28,14,14v13C34,27.552,33.552,28,33,28z M30,26h2V14c0-6.617-5.383-12-12-12    S8,7.383,8,14v12h2V14c0-5.42,4.579-10,10-10c5.42,0,10,4.58,10,10V26z"/>
	</g>
	<path style="fill:#000;" d="M23,52h-6c-0.285,0-0.557-0.122-0.747-0.335c-0.19-0.213-0.279-0.497-0.246-0.781l0.93-7.953   C15.728,41.99,15,40.537,15,39c0-2.757,2.243-5,5-5c2.757,0,5,2.243,5,5c0,1.537-0.728,2.99-1.937,3.931l0.93,7.953   c0.033,0.284-0.056,0.568-0.246,0.781C23.557,51.878,23.286,52,23,52z M18.124,50h3.753l-0.87-7.438   c-0.046-0.396,0.146-0.78,0.49-0.98C22.438,41.034,23,40.069,23,39c0-1.654-1.346-3-3-3s-3,1.346-3,3   c0,1.068,0.562,2.033,1.503,2.581c0.344,0.2,0.537,0.585,0.49,0.98L18.124,50z"/>
</g>

</svg>
