<svg height="512pt" viewBox="0 -47 512.0005 512" width="512pt" xmlns="http://www.w3.org/2000/svg"><path d="m230.398438 358.429688h-221.867188l42.667969-256.003907h179.199219zm0 0" fill="#9cc283"/><path d="m196.265625 136.558594h-17.066406v-51.199219c0-23.566406-19.101563-42.667969-42.667969-42.667969-23.5625 0-42.664062 19.101563-42.664062 42.667969v42.667969h-17.070313v-42.667969c0-32.992187 26.746094-59.734375 59.734375-59.734375 32.992188 0 59.734375 26.742188 59.734375 59.734375zm0 0" fill="#c6a16f"/><path d="m281.601562 358.429688h221.867188l-42.667969-256.003907h-179.199219zm0 0" fill="#e85858"/><path d="m332.800781 136.558594h-17.066406v-51.199219c0-32.992187 26.742187-59.734375 59.734375-59.734375 32.988281 0 59.734375 26.742188 59.734375 59.734375v42.667969h-17.070313v-42.667969c0-23.566406-19.101562-42.667969-42.664062-42.667969-23.566406 0-42.667969 19.101563-42.667969 42.667969zm0 0" fill="#c6a16f"/><path d="m401.066406 409.628906h-290.132812l25.597656-273.070312h238.9375zm0 0" fill="#EDBF85"/><path d="m332.800781 179.226562h-17.066406v-102.402343c0-32.988281-26.746094-59.734375-59.734375-59.734375-32.992188 0-59.734375 26.746094-59.734375 59.734375v102.402343h-17.066406v-102.402343c0-42.414063 34.382812-76.8007815 76.800781-76.8007815s76.800781 34.3867185 76.800781 76.8007815zm0 0" fill="#e8d8bf"/><path d="m509.980469 363.941406c1.621093-1.914062 2.316406-4.445312 1.902343-6.921875l-42.667968-256c-.6875-4.113281-4.242188-7.125-8.410156-7.128906h-25.601563v-8.53125c.046875-32.949219-26.621094-59.699219-59.570313-59.746094-18.863281-.027343-36.628906 8.867188-47.910156 23.992188-14.960937-39.617188-59.203125-59.601563-98.816406-44.640625-20.597656 7.78125-36.859375 24.039062-44.636719 44.640625-19.707031-26.40625-57.085937-31.839844-83.492187-12.136719-15.113282 11.277344-24.003906 29.035156-23.980469 47.890625v8.53125h-25.597656c-4.171875.003906-7.730469 3.019531-8.414063 7.136719l-42.667968 256c-.773438 4.652344 2.367187 9.046875 7.019531 9.820312.460937.074219.925781.113282 1.394531.113282h97.828125l-3.960937 41.859374c-.449219 4.691407 2.992187 8.855469 7.683593 9.304688.28125.027344.566407.039062.851563.039062h290.132812c4.714844.019532 8.550782-3.785156 8.574219-8.496093 0-.28125-.011719-.5625-.039063-.839844l-3.960937-41.867187h97.828125c2.507812 0 4.890625-1.105469 6.511719-3.019532zm-177.179688-278.582031c0-23.566406 19.101563-42.667969 42.667969-42.667969 23.5625 0 42.664062 19.101563 42.664062 42.667969v8.53125h-85.332031zm-136.535156 0v-8.535156c0-32.988281 26.746094-59.734375 59.734375-59.734375 32.992188 0 59.734375 26.746094 59.734375 59.734375v17.066406h-34.132813c-4.714843 0-8.535156 3.820313-8.535156 8.535156v25.601563h-34.132812v-25.601563c0-4.710937-3.820313-8.535156-8.53125-8.535156h-34.136719zm119.46875 25.601563v17.066406h-25.601563v-17.066406zm-119.46875 0h25.601563v17.066406h-25.601563zm-102.402344-25.601563c0-23.566406 19.105469-42.667969 42.667969-42.667969 23.566406 0 42.667969 19.101563 42.667969 42.667969v8.53125h-85.335938zm14.089844 264.535156h-89.34375l39.816406-238.933593h18.371094v17.066406h17.070313v-17.066406h85.332031v17.066406h-42.664063c-4.417968-.019532-8.121094 3.332031-8.535156 7.730468zm12.367187 51.199219 23.976563-256h34.902344v34.132812h17.066406v-34.132812h119.46875v34.132812h17.066406v-34.132812h34.902344l23.976563 256zm283.742188-51.199219-20.0625-214.144531c-.417969-4.394531-4.117188-7.742188-8.53125-7.722656h-42.667969v-17.070313h85.335938v17.070313h17.066406v-17.070313h18.371094l39.816406 238.9375zm0 0"/></svg>
