<svg xmlns="http://www.w3.org/2000/svg" viewBox="0 0 40 40" width="40" height="40">
	<style>
		tspan { white-space:pre }
		.shp0 { fill: #7F7F7F }
	</style>
	<path id="Path 101" class="shp0" d="M40,20c0,11.05 -8.96,20 -20,20c-11.05,0 -20,-8.96 -20,-20c0,-11.04 8.95,-20 20,-20c11.05,0 20,8.95 20,20zM29.51,13.58l-3.06,-3.06c-0.22,-0.22 -0.59,-0.22 -0.81,0l-15.26,15.26l0.02,0.02c-0.17,0.1 -0.3,0.28 -0.34,0.48l-0.8,3.6c-0.06,0.25 0.02,0.51 0.2,0.69c0.14,0.14 0.33,0.22 0.53,0.22c0.05,0 0.11,-0.01 0.16,-0.02l3.61,-0.8c0.2,-0.04 0.37,-0.17 0.48,-0.34l0.02,0.02l0.95,-0.95l-3.87,-3.87l1.47,-1.47l3.87,3.87l9.48,-9.48l-3.87,-3.87l1.47,-1.47l3.87,3.87l1.9,-1.9c0.22,-0.22 0.22,-0.59 0,-0.81z" />
</svg>
