<svg xmlns="http://www.w3.org/2000/svg" viewBox="0 0 40 40" width="40" height="40">
	<style>
		tspan { white-space:pre }
		.shp0 { fill: #ffffff }
	</style>
	<path id="Path 100" class="shp0" d="M40,20c0,11.04 -8.95,20 -20,20c-11.04,0 -20,-8.96 -20,-20c0,-11.05 8.95,-20 20,-20c11.05,0 20,8.96 20,20zM23.18,20.01c0,-0.38 5.41,-5.42 5.41,-5.42l-3.19,-3.19c0,0 -5.08,5.41 -5.42,5.41c-0.33,0 -5.41,-5.41 -5.41,-5.41l-3.19,3.19c0,0 5.41,4.97 5.41,5.42c0,0.44 -5.41,5.41 -5.41,5.41l3.19,3.18c0,0 5.04,-5.41 5.41,-5.41c0.38,0 5.42,5.41 5.42,5.41l3.19,-3.18c0,0 -5.41,-5.05 -5.41,-5.41z" />
</svg>
