<?xml version="1.0" encoding="iso-8859-1"?>
<!-- Generator: Adobe Illustrator 19.0.0, SVG Export Plug-In . SVG Version: 6.00 Build 0)  -->
<svg version="1.1" id="Capa_1" xmlns="http://www.w3.org/2000/svg" xmlns:xlink="http://www.w3.org/1999/xlink" x="0px" y="0px"
	 viewBox="0 0 512 512" style="enable-background:new 0 0 512 512;" xml:space="preserve">
<circle style="fill:#FFE17D;" cx="256.002" cy="255.962" r="248.463"/>
<path style="fill:#FFD164;" d="M292.07,468.358c-137.222,0-248.463-111.241-248.463-248.463c0-59.424,20.888-113.954,55.687-156.709
	C43.319,108.744,7.541,178.165,7.541,255.963c0,137.221,111.24,248.463,248.463,248.463c77.798,0,147.22-35.779,192.777-91.755
	C406.025,447.469,351.496,468.358,292.07,468.358z"/>
<path style="fill:#9C6846;" d="M161.442,264.236c-7.961-1.982-13.163,7.942-7.289,13.669c27.518,26.83,63.004,43.045,101.851,43.045
	s74.332-16.215,101.851-43.045c5.874-5.727,0.672-15.651-7.289-13.669c-29.45,7.331-61.275,11.379-94.561,11.379
	C222.717,275.614,190.892,271.566,161.442,264.236z"/>
<path style="fill:#7D5046;" d="M350.565,264.235c-29.45,7.332-61.275,11.379-94.562,11.379s-65.112-4.047-94.561-11.378
	c-7.961-1.982-13.163,7.942-7.29,13.669c5.29,5.158,10.958,9.789,16.805,14.122c27.356,3.079,55.732,4.877,85.044,4.877
	s57.688-1.798,85.043-4.877c5.847-4.334,11.515-8.964,16.806-14.123C363.728,272.176,358.525,262.253,350.565,264.235z"/>
<g>
	<path style="fill:#FFD164;" d="M39.519,445.112l64.181,45.843c28.763,20.545,68.163,17.283,93.156-7.71l0,0
		c21.608-21.608,27.299-54.466,14.218-82.082l-24.962-52.698c-2.415-5.098-8.256-7.59-13.607-5.806l0,0
		c-4.554,1.518-7.626,5.78-7.626,10.581v25.965l-53.662-73.176c-4.563-6.223-13.6-6.914-19.057-1.458l0,0
		c-3.931,3.931-4.819,9.977-2.183,14.873l35.231,65.428l-53.455-53.455c-4.908-4.908-12.865-4.908-17.773,0l0,0
		c-4.596,4.596-4.929,11.939-0.768,16.932l49.327,59.192l-59.445-39.629c-4.98-3.32-11.612-2.664-15.845,1.569l0,0
		c-5.221,5.221-4.832,13.799,0.84,18.526l57.445,47.871l-35.319-11.773c-7.718-2.573-15.688,3.172-15.688,11.307l0,0
		C34.528,439.263,36.387,442.875,39.519,445.112z"/>
	<path style="fill:#FFD164;" d="M472.488,445.112l-64.181,45.843c-28.763,20.545-68.163,17.283-93.156-7.71l0,0
		c-21.608-21.608-27.299-54.466-14.218-82.082l24.962-52.698c2.415-5.098,8.256-7.59,13.607-5.806l0,0
		c4.554,1.518,7.626,5.78,7.626,10.581v25.965l53.662-73.176c4.563-6.223,13.6-6.914,19.057-1.458l0,0
		c3.931,3.931,4.819,9.977,2.183,14.873l-35.231,65.428l53.455-53.455c4.908-4.908,12.865-4.908,17.773,0l0,0
		c4.596,4.596,4.929,11.939,0.768,16.932l-49.327,59.192l59.443-39.629c4.98-3.32,11.612-2.664,15.845,1.569l0,0
		c5.221,5.221,4.832,13.799-0.84,18.526l-57.445,47.871l35.319-11.773c7.718-2.573,15.688,3.172,15.688,11.307l0,0
		C477.48,439.263,475.62,442.875,472.488,445.112z"/>
</g>
<path d="M376.304,183.275c1.648,0,3.308-0.542,4.693-1.655c3.229-2.595,3.741-7.315,1.147-10.542
	c-9.621-11.968-23.436-18.832-37.908-18.832c-14.472,0-28.288,6.864-37.908,18.832c-2.595,3.229-2.082,7.948,1.147,10.542
	c3.228,2.595,7.949,2.081,10.542-1.147c6.759-8.409,16.315-13.231,26.219-13.231s19.46,4.822,26.219,13.231
	C371.935,182.316,374.11,183.275,376.304,183.275z"/>
<path d="M194.076,180.473c2.594,3.228,7.313,3.741,10.542,1.147c3.229-2.595,3.741-7.314,1.147-10.542
	c-9.62-11.968-23.436-18.832-37.908-18.832c-14.471,0-28.288,6.864-37.908,18.832c-2.595,3.229-2.082,7.948,1.147,10.542
	c1.385,1.113,3.045,1.655,4.693,1.655c2.194,0,4.368-0.958,5.85-2.802c6.759-8.409,16.315-13.231,26.219-13.231
	C177.763,167.242,187.318,172.065,194.076,180.473z"/>
<path d="M256.033,328.426c39.18,0,77.215-16.045,107.097-45.179c5.157-5.028,6.272-12.624,2.774-18.903
	c-3.416-6.132-10.29-9.112-17.109-7.413c-29.743,7.404-60.951,11.158-92.761,11.158c-31.811,0-63.021-3.754-92.76-11.158l0,0
	c-6.815-1.699-13.693,1.281-17.109,7.413c-3.498,6.279-2.384,13.876,2.773,18.904C178.817,312.38,216.852,328.426,256.033,328.426z
	 M159.153,271.968c0.034-0.264,0.2-0.486,0.242-0.519c0.004,0,0.011-0.001,0.021-0.001c0.038,0,0.116,0.006,0.232,0.036
	c30.924,7.699,63.352,11.602,96.384,11.602c33.03,0,65.458-3.903,96.383-11.602c0.147-0.037,0.232-0.038,0.215-0.047
	c0.08,0.045,0.246,0.268,0.279,0.532c0.016,0.123,0.034,0.262-0.251,0.54c-27.065,26.388-61.382,40.92-96.627,40.92
	c-35.247,0-69.563-14.532-96.627-40.92C159.12,272.23,159.138,272.091,159.153,271.968z"/>
<path d="M488.665,362.859c19.951-43.415,27.309-91.359,21.266-139.124c-6.442-50.919-27.762-98.188-61.656-136.696
	c-2.736-3.109-7.475-3.411-10.583-0.675s-3.411,7.475-0.675,10.583c31.902,36.247,51.97,80.74,58.034,128.671
	c5.773,45.633-1.432,91.433-20.837,132.771c-3.283,0.277-6.525,1.35-9.408,3.272l-16.43,10.953l16.232-19.478
	c6.689-8.026,6.162-19.649-1.226-27.038c-7.825-7.824-20.557-7.823-28.381,0L417.67,343.43l11.011-20.449
	c4.239-7.872,2.84-17.409-3.482-23.733c-4.15-4.15-9.885-6.27-15.741-5.826c-5.852,0.448-11.198,3.419-14.668,8.152l-40.123,54.713
	v-3.063c0-8.042-5.125-15.154-12.755-17.696c-8.941-2.981-18.722,1.196-22.757,9.712l-24.965,52.704
	c-14.402,30.403-8.096,66.815,15.694,90.604c0.643,0.643,1.306,1.253,1.965,1.869c-36.745,8.733-74.853,8.735-111.622-0.011
	c0.655-0.613,1.314-1.219,1.953-1.858c23.788-23.789,30.096-60.2,15.694-90.604l-24.965-52.705
	c-4.033-8.516-13.815-12.689-22.757-9.711c-7.629,2.543-12.755,9.655-12.755,17.696v3.063l-40.122-54.713
	c-3.471-4.733-8.818-7.705-14.67-8.152c-5.854-0.444-11.589,1.676-15.739,5.826c-6.322,6.322-7.723,15.86-3.483,23.732
	l11.011,20.449l-17.332-17.332c-7.825-7.824-20.557-7.823-28.381,0c-7.388,7.388-7.916,19.012-1.227,27.038l16.232,19.478
	l-16.43-10.953c-2.88-1.92-6.118-2.993-9.398-3.272C-5.24,266.661,13.744,157.408,85.597,85.556
	c43.596-43.596,101.528-68.616,163.121-70.448c61.323-1.832,120.384,19.427,166.303,59.843c3.109,2.737,7.848,2.436,10.583-0.675
	c2.737-3.109,2.435-7.847-0.675-10.583C376.146,20.754,313.403-1.816,248.271,0.114c-65.43,1.948-126.969,28.525-173.28,74.836
	c-75.828,75.827-96.231,190.871-51.598,287.913c-0.498,0.409-0.982,0.839-1.445,1.302c-3.975,3.975-6.109,9.476-5.854,15.092
	c0.255,5.616,2.878,10.9,7.197,14.5l27.183,22.653c-5.31-1.121-10.924,0.034-15.378,3.243c-5.05,3.639-8.065,9.529-8.065,15.754
	c0,6.258,3.041,12.165,8.133,15.802l0,0l64.188,45.849C113.389,507.083,129.627,512,145.773,512
	c13.48-0.001,26.886-3.451,38.9-10.197c23.386,6.771,47.398,10.164,71.407,10.164c23.993,0,47.981-3.391,71.333-10.151
	c12.007,6.737,25.404,10.183,38.877,10.183c16.145,0,32.386-4.918,46.421-14.943l64.187-45.849
	c5.092-3.636,8.133-9.544,8.133-15.802c0-6.225-3.015-12.114-8.065-15.754c-4.453-3.21-10.065-4.363-15.378-3.243l27.184-22.653
	c4.318-3.599,6.941-8.885,7.196-14.5c0.255-5.616-1.879-11.116-5.853-15.092C489.652,363.701,489.165,363.269,488.665,362.859z
	 M108.07,484.852l-64.188-45.849l0,0c-1.159-0.828-1.852-2.173-1.852-3.597c0-1.97,1.15-3.093,1.836-3.586
	c0.499-0.359,1.39-0.847,2.558-0.847c0.438,0,0.916,0.069,1.426,0.239l35.324,11.774c3.417,1.14,7.168-0.315,8.922-3.464
	c1.755-3.15,1.02-7.102-1.75-9.411l-57.452-47.877c-1.492-1.243-1.778-2.826-1.816-3.657c-0.038-0.833,0.104-2.435,1.477-3.807
	c1.699-1.699,4.384-1.966,6.385-0.632l59.45,39.633c3.101,2.068,7.248,1.545,9.738-1.228c2.491-2.771,2.568-6.95,0.183-9.813
	l-49.333-59.199c-1.69-2.028-1.557-4.964,0.31-6.831c1.978-1.976,5.193-1.977,7.171,0l53.461,53.461
	c2.631,2.631,6.792,2.936,9.779,0.714c2.986-2.221,3.89-6.295,2.126-9.572l-35.235-65.435c-1.075-1.996-0.72-4.414,0.883-6.017
	c1.441-1.441,3.118-1.545,3.99-1.477c0.872,0.066,2.515,0.424,3.719,2.067l53.669,73.184c1.918,2.616,5.297,3.701,8.38,2.693
	c3.082-1.009,5.166-3.884,5.166-7.127v-25.969c0-1.576,1.005-2.97,2.5-3.468c1.752-0.584,3.668,0.234,4.46,1.903l24.965,52.704
	c11.695,24.69,6.574,54.26-12.745,73.579C169.078,500.438,133.959,503.346,108.07,484.852z M480.988,378.576
	c-0.038,0.833-0.324,2.415-1.815,3.657l-57.452,47.877c-2.77,2.309-3.504,6.26-1.75,9.411c1.754,3.15,5.5,4.603,8.922,3.464
	l35.324-11.774c1.87-0.623,3.299,0.114,3.983,0.608c0.686,0.494,1.836,1.617,1.836,3.586c0,1.425-0.692,2.77-1.852,3.597l0,0
	l-64.188,45.849c-25.89,18.492-61.01,15.586-83.506-6.911c-19.318-19.319-24.44-48.889-12.745-73.579l24.965-52.704
	c0.619-1.307,1.928-2.092,3.306-2.092c0.383,0,0.772,0.061,1.154,0.188c1.495,0.499,2.5,1.893,2.5,3.468v25.969
	c0,3.243,2.084,6.118,5.166,7.127c3.081,1.009,6.462-0.078,8.38-2.693l53.669-73.184c1.205-1.643,2.847-2,3.718-2.067
	c0.875-0.067,2.55,0.036,3.99,1.477c1.604,1.603,1.958,4.02,0.883,6.017l-35.234,65.435c-1.764,3.276-0.859,7.351,2.126,9.572
	c2.986,2.221,7.148,1.917,9.779-0.714l53.461-53.461c1.977-1.977,5.193-1.977,7.17,0c1.867,1.867,2,4.803,0.31,6.832l-49.333,59.199
	c-2.385,2.862-2.308,7.041,0.183,9.813c2.491,2.772,6.637,3.294,9.738,1.228l59.45-39.633c2.001-1.332,4.685-1.067,6.384,0.632
	C480.884,376.143,481.025,377.745,480.988,378.576z"/>
<g>
</g>
<g>
</g>
<g>
</g>
<g>
</g>
<g>
</g>
<g>
</g>
<g>
</g>
<g>
</g>
<g>
</g>
<g>
</g>
<g>
</g>
<g>
</g>
<g>
</g>
<g>
</g>
<g>
</g>
</svg>
